<?xml version="1.0" encoding="utf-8"?><!DOCTYPE svg PUBLIC "-//W3C//DTD SVG 1.1//EN" "http://www.w3.org/Graphics/SVG/1.1/DTD/svg11.dtd"><svg xmlns="http://www.w3.org/2000/svg" xmlns:xlink="http://www.w3.org/1999/xlink"><symbol viewBox="0 0 10 28" id="caret-left"><path d="M10 7v14q0 .406-.297.703T9 22t-.703-.297l-7-7Q1 14.406 1 14t.297-.703l7-7Q8.594 6 9 6t.703.297T10 7z"/></symbol><symbol viewBox="0 0 20 20" id="chevron-down"><path d="M4.516 7.548c.436-.446 1.043-.48 1.576 0L10 11.295l3.908-3.747c.533-.48 1.14-.446 1.574 0 .436.445.408 1.197 0 1.615-.406.418-4.695 4.502-4.695 4.502a1.095 1.095 0 0 1-1.576 0S4.925 9.58 4.517 9.163s-.436-1.17 0-1.615z"/></symbol><symbol viewBox="0 0 20 20" id="chevron-left"><path d="M12.452 4.516c.446.436.48 1.043 0 1.576L8.705 10l3.747 3.908c.48.533.446 1.14 0 1.574-.445.436-1.197.408-1.615 0-.418-.406-4.502-4.695-4.502-4.695a1.095 1.095 0 0 1 0-1.576s4.084-4.286 4.502-4.694 1.17-.436 1.615 0z"/></symbol><symbol viewBox="0 0 20 20" id="chevron-right"><path d="M9.163 4.516c.418.408 4.502 4.695 4.502 4.695a1.095 1.095 0 0 1 0 1.576s-4.084 4.29-4.502 4.696c-.418.408-1.17.436-1.615 0-.446-.434-.48-1.04 0-1.574L11.295 10 7.548 6.092c-.48-.533-.446-1.14 0-1.576s1.197-.41 1.615 0z"/></symbol><symbol viewBox="0 0 16 28" id="facebook"><path d="M14.984.187v4.125H12.53q-1.343 0-1.812.562t-.47 1.687v2.954h4.58l-.61 4.625h-3.97v11.858H5.47v-11.86H1.484V9.515h3.984V6.108q0-2.906 1.625-4.508T11.42-.002q2.298 0 3.564.187z"/></symbol><symbol viewBox="0 0 20 20" id="flickr"><path d="M5 14c-2.188 0-3.96-1.79-3.96-4S2.812 6 5 6c2.187 0 3.96 1.79 3.96 4S7.187 14 5 14zM15 14c-2.188 0-3.96-1.79-3.96-4S12.812 6 15 6c2.187 0 3.96 1.79 3.96 4s-1.773 4-3.96 4z"/></symbol><symbol viewBox="0 0 20 20" id="heart"><path d="M17.19 4.155c-1.672-1.534-4.383-1.534-6.055 0L10 5.197 8.864 4.155c-1.672-1.534-4.382-1.534-6.054 0-1.88 1.727-1.88 4.52 0 6.246L10 17l7.19-6.6c1.88-1.725 1.88-4.52 0-6.245z"/></symbol><symbol viewBox="0 0 20 20" id="home"><path d="M18.672 11H17v6c0 .445-.194 1-1 1h-4v-6H8v6H4c-.806 0-1-.555-1-1v-6H1.328c-.598 0-.47-.324-.06-.748L9.292 2.22A1.03 1.03 0 0 1 10 1.908c.257.01.513.11.708.312l8.023 8.03c.412.426.54.75-.058.75z"/></symbol><symbol viewBox="0 0 20 20" id="magnifying-glass"><path d="M17.545 15.467l-3.78-3.78a6.15 6.15 0 0 0 .9-3.21c0-3.416-2.962-6.376-6.38-6.376S2.1 4.87 2.1 8.288c0 3.416 2.96 6.377 6.377 6.377 1.137 0 2.2-.31 3.115-.844l3.8 3.8c.37.372.974.372 1.345 0l.943-.942c.37-.37.236-.84-.135-1.21zm-13.54-7.18c0-2.366 1.916-4.283 4.28-4.283S12.76 6.11 12.76 8.478c0 2.365-1.918 4.283-4.283 4.283s-4.473-2.108-4.473-4.473z"/></symbol><symbol viewBox="0 0 20 20" id="mail"><path d="M1.574 5.286l7.5 4.03c.252.135.578.198.906.198.328 0 .654-.064.906-.2l7.5-4.028c.49-.263.95-1.286.054-1.286H1.52c-.896 0-.434 1.023.054 1.286zm17.04 2.203c-.556.288-7.388 3.848-7.728 4.026s-.578.2-.906.2-.566-.022-.906-.2-7.133-3.74-7.688-4.028c-.39-.204-.386.035-.386.22V15c0 .42.566 1 1 1h16c.434 0 1-.58 1-1V7.708c0-.184.004-.423-.387-.22z"/></symbol><symbol viewBox="0 0 20 20" id="plus"><path d="M16 10c0 .553-.048 1-.6 1H11v4.4c0 .55-.447.6-1 .6s-1-.05-1-.6V11H4.6c-.55 0-.6-.447-.6-1s.05-1 .6-1H9V4.6c0-.552.447-.6 1-.6s1 .048 1 .6V9h4.4c.552 0 .6.447.6 1z"/></symbol><symbol viewBox="0 0 20 20" id="print"><path d="M1.5 6h17c.57 0 .478-.608.194-.707C18.41 5.193 15.25 4 14.7 4H14V1H6v3h-.7C4.75 4 1.593 5.194 1.31 5.293S.93 6 1.5 6zM19 7H1c-.55 0-1 .45-1 1v5c0 .55.45 1 1 1h2.283L2.4 19h15.2l-.883-5H19c.55 0 1-.45 1-1V8c0-.55-.45-1-1-1zM4.603 17L5.8 9.997h8.4L15.4 17H4.602z"/></symbol><symbol viewBox="0 0 26 28" id="search"><path d="M18 13q0-2.89-2.055-4.945T11 6 6.055 8.055 4 13t2.055 4.945T11 20t4.945-2.055T18 13zm8 13q0 .812-.594 1.406T24 28q-.844 0-1.406-.594l-5.36-5.344Q14.44 24 11.002 24q-2.233 0-4.272-.868t-3.516-2.344-2.344-3.516T0 13 .87 8.725 3.212 5.21t3.516-2.344T11 2t4.274.866T18.79 5.21t2.344 3.516T22 13q0 3.436-1.936 6.233l5.36 5.36q.577.577.577 1.405z"/></symbol><symbol viewBox="0 0 20 20" id="twitter"><path d="M17.316 6.246c.008.162.01.326.01.488 0 4.99-3.796 10.742-10.74 10.742-2.132 0-4.115-.625-5.786-1.697.296.034.596.052.9.052 1.77 0 3.397-.604 4.688-1.615a3.78 3.78 0 0 1-3.526-2.62 3.858 3.858 0 0 0 1.705-.066A3.78 3.78 0 0 1 1.54 7.83V7.78c.508.284 1.09.454 1.71.474a3.775 3.775 0 0 1-1.17-5.04 10.716 10.716 0 0 0 7.782 3.944 3.813 3.813 0 0 1-.097-.86 3.773 3.773 0 0 1 3.774-3.774 3.77 3.77 0 0 1 2.755 1.19 7.602 7.602 0 0 0 2.397-.915 3.79 3.79 0 0 1-1.66 2.087 7.55 7.55 0 0 0 2.168-.594 7.623 7.623 0 0 1-1.884 1.953z"/></symbol><symbol viewBox="0 0 32 32" id="undo"><path d="M23.808 32C27.362 25.56 27.96 15.74 14 16.068V24L2 12 14 0v7.762C30.718 7.326 32.58 22.52 23.808 32z"/></symbol><symbol viewBox="0 0 20 20" id="youtube"><path d="M10 2.3C.172 2.3 0 3.174 0 10s.172 7.7 10 7.7 10-.874 10-7.7-.172-7.7-10-7.7zm3.205 8.034l-4.49 2.096c-.393.182-.715-.022-.715-.456V8.026c0-.433.322-.638.715-.456l4.49 2.096c.393.184.393.484 0 .668z"/></symbol></svg>