<?xml version="1.0" encoding="UTF-8" standalone="no"?>
<svg viewBox="0 0 48 65" version="1.1" xmlns="http://www.w3.org/2000/svg" xmlns:xlink="http://www.w3.org/1999/xlink" xmlns:sketch="http://www.bohemiancoding.com/sketch/ns">
    <!-- Generator: Sketch 3.3.3 (12081) - http://www.bohemiancoding.com/sketch -->
    <title>Shape</title>
    <desc>Created with Sketch.</desc>
    <defs></defs>
    <g id="design" stroke="none" stroke-width="1" fill="none" fill-rule="evenodd" sketch:type="MSPage">
        <g id="homepage---footer-v2" sketch:type="MSArtboardGroup" transform="translate(-263.000000, -1020.000000)">
            <g id="Calls-to-Action" sketch:type="MSLayerGroup" transform="translate(71.000000, 894.000000)">
                <g id="Oval-19-+-book-+-SHARE-YOUR-STORY-+-Velit-ornare-dolor-c" transform="translate(0.000000, 72.000000)" sketch:type="MSShapeGroup">
                    <g id="Oval-19-+-book" transform="translate(130.000000, 0.000000)">
                        <path d="M108.608004,70.2184343 L78.3727469,54.7810261 C74.2289317,52.6193856 66.0634777,56.7947473 63.7183702,60.4692001 C62.6696897,62.1097609 62.7477468,63.296478 62.7477468,63.968839 L63.1210635,98.8341178 C63.14482,99.5737149 64.0848993,100.572171 64.8926208,101.062994 C66.5691521,102.084983 91.9716555,117.794698 92.6911385,118.238456 C93.0780304,118.477144 93.5361918,118.588084 93.9875656,118.588084 C94.3710636,118.588084 94.7613492,118.504038 95.1075156,118.332586 C95.8745117,117.962788 96.3462482,117.24 96.3462482,116.453337 L96.3462482,79.8331964 C96.3462482,79.0700667 95.8948744,78.3640877 95.16521,77.9842037 L67.6789208,62.7854837 C67.9911493,62.1870824 69.212913,60.9196819 71.4596007,59.7564974 C73.8284647,58.5294386 75.600022,58.9900059 76.0072766,59.1480107 C76.0072766,59.1480107 102.383797,73.1297574 103.191519,73.5466212 C103.99924,73.963485 104.009422,74.0239975 104.009422,74.7367001 L104.009422,109.484316 C104.009422,111.219007 105.787767,111.928348 107.090981,111.928348 C108.394196,111.928348 109.782255,110.664309 109.782255,109.484316 L109.782255,72.067427 C109.789043,71.3042973 109.337669,70.5983183 108.608004,70.2184343 L108.608004,70.2184343 Z" id="Shape" fill="#FFFFFF"></path>
                    </g>
                </g>
            </g>
        </g>
    </g>
</svg>
