<?xml version="1.0" encoding="UTF-8" standalone="no"?>
<svg viewBox="0 0 79 63" version="1.1" xmlns="http://www.w3.org/2000/svg" xmlns:xlink="http://www.w3.org/1999/xlink" xmlns:sketch="http://www.bohemiancoding.com/sketch/ns">
    <!-- Generator: Sketch 3.3.3 (12081) - http://www.bohemiancoding.com/sketch -->
    <title>Group Copy</title>
    <desc>Created with Sketch.</desc>
    <defs></defs>
    <g id="design" stroke="none" stroke-width="1" fill="none" fill-rule="evenodd" sketch:type="MSPage">
        <g id="homepage---footer-v2" sketch:type="MSArtboardGroup" transform="translate(-737.000000, -1023.000000)">
            <g id="Calls-to-Action" sketch:type="MSLayerGroup" transform="translate(71.000000, 894.000000)">
                <g id="GET-INVOLVED-+-Oval-19-Copy-+-Group-Copy-+-Velit-ornare-dolor-c-Copy" transform="translate(480.000000, 73.000000)" sketch:type="MSShapeGroup">
                    <g id="Oval-19-Copy-+-Group-Copy" transform="translate(140.000000, 0.000000)">
                        <g id="Group-Copy" transform="translate(46.541561, 55.560317)" fill="#FFFFFF">
                            <path d="M65.9906099,39.2390345 C64.7648451,39.1501699 63.9200931,39.1012105 63.0790402,39.0187173 C62.8967728,39.000609 62.6936557,38.8979955 62.5547693,38.773585 C57.1032265,33.8950841 51.6580732,29.0088703 46.2112385,24.125004 C44.5123183,22.6015623 42.8083539,21.0841567 41.1124604,19.5570263 C40.9355736,19.3977406 40.7896252,19.3601827 40.5448085,19.4235616 C37.9503571,20.0969208 35.3723837,20.85948 32.7463213,21.379925 C29.8455127,21.9550301 27.0455901,21.5630197 24.5674938,19.7813676 C23.4651462,18.9889633 22.6617574,17.9410312 22.0520697,16.7408556 C21.4410369,15.5383326 22.021804,14.1154924 23.3202067,13.7385722 C27.896059,12.4102973 32.3219275,10.663185 36.7780618,8.99789525 C38.1588548,8.48180967 39.6082502,8.2296353 41.0848849,8.3268834 C41.631687,8.36276459 42.178489,8.57067431 42.701751,8.76315847 C47.0664154,10.368758 51.4240177,11.9924659 55.7896909,13.5953827 C56.019711,13.679888 56.3186698,13.6906188 56.5554156,13.6262339 C59.8143694,12.7409409 63.0696241,11.8412283 66.3211797,10.9284376 C66.6480503,10.8365549 66.8124945,10.9123414 67.0129213,11.1752465 C68.4599627,13.070243 69.5986293,15.1496756 70.68349,17.2589532 C73.4470937,22.6317427 75.8165693,28.1805849 78.0811236,33.776039 C78.1816733,34.0245246 78.1557792,34.1754269 77.9714941,34.3712644 C75.7607458,36.7186322 73.0260628,38.1213521 69.8901898,38.7356918 C68.487202,39.0106692 67.048904,39.1069113 65.9906099,39.2390345" id="Fill-1-Copy"></path>
                            <path d="M14.0094384,33.0574091 C15.0283869,32.4826393 16.1176194,32.3377732 17.2546045,32.6553385 C18.0906131,32.888734 18.8008505,33.3384226 19.3715289,33.9886434 C20.3948492,35.1542792 21.0025191,37.1207028 19.6644346,39.1337383 C21.6740836,38.8329399 23.3097818,39.4549924 24.3394915,41.2054581 C25.4068653,43.0193027 25.1025259,44.7442827 23.651449,46.2482748 C24.2281806,46.2740958 24.7944873,46.2294958 25.3298557,46.3371394 C26.897624,46.652022 28.0009805,47.5805736 28.5215522,49.0889251 C29.0236281,50.5442932 28.7609883,51.8809514 27.6747824,53.0274729 C26.8633227,53.8845975 26.076412,54.7651958 25.2723506,55.6293625 C24.7887704,56.1488014 24.3374738,56.7108283 23.7936983,57.1595109 C22.3533826,58.3479497 20.0740317,58.3036851 18.6754156,56.8761501 C15.738288,53.8782261 13.1048273,50.6298044 10.5359337,47.3243752 C8.60194919,44.8361654 6.6931862,42.3285059 4.77298947,39.8295652 C4.08124785,38.9295173 3.48198505,37.9781627 3.27785906,36.8410307 C3.08079508,35.7421272 3.2842485,34.7444959 4.09335417,33.909839 C5.03630191,32.9366873 5.96008132,31.9447568 6.89663962,30.9652337 C8.68265798,29.096729 11.9557359,29.5185845 13.3990781,31.8143102 C13.6378417,32.1939131 13.7982504,32.6221401 14.0094384,33.0574091" id="Fill-2-Copy"></path>
                            <path d="M27.2325655,57.6189243 C28.0416711,56.7379907 28.811095,55.8999804 29.6064129,55.0341371 C29.7204141,55.1417806 29.8273532,55.2383581 29.9292481,55.3396302 C30.9095236,56.3161352 31.8847549,57.2969996 32.8690659,58.2691452 C34.865936,60.2419402 37.9540562,59.3452457 39.0496781,57.320138 C38.9558541,57.2218838 38.858331,57.1152463 38.7560999,57.0133035 C36.3123048,54.5753943 33.8668284,52.1394972 31.4250511,49.6999114 C30.9777898,49.2532409 30.8688329,48.6583508 31.1133133,48.1124201 C31.344006,47.5966699 31.9119941,47.2073422 32.4759468,47.311297 C32.8334195,47.3770233 33.2268749,47.561124 33.4831253,47.8143044 C36.6193345,50.9081352 39.7531898,54.0046486 42.8409737,57.1464327 C43.8750551,58.1987242 45.055085,58.3969091 46.3746738,58.0374265 C47.739325,57.665201 48.6752107,56.7644825 49.2263845,55.460352 C49.3444211,55.1810152 49.2855709,55.0113341 49.0737104,54.801077 C44.5590622,50.3125744 40.05383,45.8146824 35.5432173,41.3218204 C35.1282396,40.9086837 34.8797237,40.4546357 35.024327,39.8496855 C35.2567011,38.8775399 36.364093,38.4446182 37.1866501,39.0153639 C37.350758,39.1290436 37.4940161,39.2752511 37.6362653,39.4167638 C42.2023654,43.9679746 46.7755274,48.5121433 51.3194326,53.0851511 C51.782163,53.5506006 52.2368225,53.6579089 52.8236427,53.553954 C54.5703155,53.2441015 55.9914629,51.8356808 56.3297672,50.0942692 C56.3855908,49.807555 56.2527576,49.6506167 56.0745257,49.4732228 C50.8792333,44.2979475 45.6883127,39.1179774 40.4910027,33.9443788 C40.0783789,33.5339248 39.8614741,33.074176 39.9949799,32.4997416 C40.1163793,31.9772846 40.4489668,31.6157899 40.9722288,31.4769599 C41.5012077,31.3367885 41.9740268,31.4504682 42.3758893,31.8522034 C44.6639836,34.1415577 46.9561134,36.4272232 49.2502608,38.7105414 C52.1537597,41.5998158 55.0643206,44.4820482 57.959076,47.3803767 C58.1941404,47.6161195 58.4150807,47.6600488 58.708659,47.6003586 C61.2772163,47.0772309 62.7555324,44.3385234 61.7681948,41.9284473 C61.737929,41.8550083 61.7140527,41.7788865 61.6807603,41.6863331 C62.9277112,41.7980008 64.160538,41.908327 65.4495247,42.0236834 C65.6156503,42.6685389 65.6691199,43.3687251 65.5830305,44.0715941 C65.1599819,47.5282609 63.2798033,49.8011836 59.9747782,50.9181953 C59.8456441,50.9621246 59.7121383,51.1348238 59.670775,51.2739892 C58.7997926,54.2155764 56.8866579,56.0924646 53.9189283,56.8925817 C53.5580927,56.9898298 53.1797703,57.0736643 52.809855,57.073329 C52.4426299,57.0729937 52.2953364,57.2356327 52.1278656,57.5300597 C50.4740079,60.434089 47.9706902,61.8492164 44.6148858,61.6755112 C43.4745378,61.6161564 42.4014471,61.2556677 41.4339504,60.6379747 C41.1803903,60.4760063 41.0418402,60.500486 40.8303159,60.7083957 C38.1521291,63.3434837 33.9983164,63.6271799 31.0568172,61.3277655 C30.2265255,60.6785506 29.5263767,59.8636786 28.767714,59.1235871 C28.2683283,58.6363406 27.7709604,58.1467468 27.2325655,57.6189243" id="Fill-3-Copy"></path>
                            <path d="M32.9047123,7.40973327 C31.1405526,8.03178573 29.4241455,8.64076001 27.7030305,9.23531473 C27.5678433,9.28226209 27.3865848,9.26180646 27.2450081,9.21620045 C22.4620032,7.68135725 17.6800071,6.14215466 12.9013739,4.59289192 C12.6410881,4.50838668 12.4557941,4.53018366 12.2466238,4.70221219 C7.8036047,8.35371046 4.99964667,12.9652822 4.03147742,18.6489303 C3.69485449,20.6270906 3.61549085,22.6173232 3.87140498,24.6112445 C3.98372472,25.487148 4.46831377,26.2077899 4.96130999,26.9113296 C5.25287051,27.3274843 5.57772341,27.7201654 5.76839793,27.9683157 C4.98417748,28.8452253 4.21946166,29.7003378 3.39421424,30.6228534 C2.87061593,29.9354099 2.3577788,29.2905545 1.87621633,28.622896 C0.740576337,27.0488182 0.284235363,25.2799089 0.232783507,23.3460132 C0.13324266,19.6157105 0.667602136,16.0081415 2.10320981,12.5534868 C3.90974166,8.20448493 6.65955754,4.56539418 10.415543,1.6992581 C10.9051764,1.32535595 11.3981726,0.80390496 11.9517004,0.708333557 C12.4800067,0.617121551 13.092721,0.981969574 13.6623906,1.16506426 C20.026279,3.21096296 26.3891586,5.26055038 32.7520381,7.31047314 C32.7876845,7.32220998 32.817614,7.35239043 32.9047123,7.40973327" id="Fill-4-Copy"></path>
                        </g>
                    </g>
                </g>
            </g>
        </g>
    </g>
</svg>
