<?xml version="1.0" encoding="UTF-8" standalone="no"?>
<svg width="14px" height="24px" viewBox="0 0 14 24" version="1.1" xmlns="http://www.w3.org/2000/svg" xmlns:xlink="http://www.w3.org/1999/xlink" xmlns:sketch="http://www.bohemiancoding.com/sketch/ns">
    <!-- Generator: Sketch 3.3.1 (12005) - http://www.bohemiancoding.com/sketch -->
    <title>Shape Copy 2</title>
    <desc>Created with Sketch.</desc>
    <defs></defs>
    <g id="verison-2" stroke="none" stroke-width="1" fill="none" fill-rule="evenodd" sketch:type="MSPage">
        <g id="v2-Homepage" sketch:type="MSArtboardGroup" transform="translate(-1322.000000, -1590.000000)" fill="#5091CD">
            <g id="articles" sketch:type="MSLayerGroup" transform="translate(81.000000, 1547.000000)">
                <path d="M1241.93,53.55 C1241.49,53.982 1241.27,54.546 1241.27,55.11 C1241.27,55.674 1241.49,56.24 1241.93,56.67 C1241.93,56.67 1250.02,65.162 1250.846,65.968 C1251.674,66.774 1253.162,66.83 1254.046,65.968 C1254.93,65.106 1255,63.906 1254.046,62.848 L1246.626,55.108 L1254.046,47.37 C1255,46.314 1254.928,45.11 1254.046,44.25 C1253.162,43.39 1251.674,43.446 1250.846,44.254 C1250.02,45.06 1241.93,53.55 1241.93,53.55 Z" id="Shape-Copy-2" sketch:type="MSShapeGroup" transform="translate(1248.002750, 55.109987) scale(-1, 1) translate(-1248.002750, -55.109987) "></path>
            </g>
        </g>
    </g>
</svg>