<?xml version="1.0" encoding="UTF-8" standalone="no"?>
<svg width="18px" height="18px" viewBox="0 0 18 18" version="1.1" xmlns="http://www.w3.org/2000/svg" xmlns:xlink="http://www.w3.org/1999/xlink" xmlns:sketch="http://www.bohemiancoding.com/sketch/ns">
    <!-- Generator: Sketch 3.3.1 (12005) - http://www.bohemiancoding.com/sketch -->
    <title>instagram</title>
    <desc>Created with Sketch.</desc>
    <defs></defs>
    <g id="Welcome" stroke="none" stroke-width="1" fill="none" fill-rule="evenodd" sketch:type="MSPage">
        <g id="Mobile---Top" sketch:type="MSArtboardGroup" transform="translate(-429.000000, -91.000000)">
            <g id="Group-+-Imported-Layers" sketch:type="MSLayerGroup" transform="translate(346.000000, 90.000000)">
                <g id="Group" sketch:type="MSShapeGroup">
                    <g id="instagram" transform="translate(82.000000, 0.750000)">
                        <rect id="Rectangle-path" x="0" y="0" width="20" height="20"></rect>
                        <path d="M15.135,9.378 C15.135,12.222 12.829,14.526 9.987,14.526 C7.143,14.526 4.839,12.221 4.839,9.378 C4.839,9.039 4.872,8.708 4.935,8.388 L1.473,8.388 L1.473,15.232 C1.473,16.702 2.663,17.893 4.134,17.893 L15.842,17.893 C17.311,17.893 18.503,16.702 18.503,15.232 L18.503,8.388 L15.04,8.388 C15.101,8.708 15.135,9.039 15.135,9.378 L15.135,9.378 Z M15.84,0.863 L4.132,0.863 C2.661,0.863 1.471,2.054 1.471,3.523 L1.471,6.407 L5.782,6.407 C6.714,5.09 8.249,4.229 9.987,4.229 C11.723,4.229 13.258,5.089 14.191,6.407 L18.502,6.407 L18.502,3.523 C18.501,2.055 17.309,0.863 15.84,0.863 L15.84,0.863 Z M17.141,4.15 C17.141,4.412 16.928,4.625 16.666,4.625 L15.24,4.625 C14.979,4.625 14.765,4.412 14.765,4.15 L14.765,2.724 C14.765,2.462 14.979,2.248 15.24,2.248 L16.666,2.248 C16.927,2.248 17.141,2.462 17.141,2.724 L17.141,4.15 L17.141,4.15 Z M13.154,9.378 C13.154,7.628 11.736,6.209 9.986,6.209 C8.236,6.209 6.818,7.628 6.818,9.378 C6.818,11.128 8.236,12.546 9.986,12.546 C11.736,12.546 13.154,11.128 13.154,9.378 L13.154,9.378 Z" id="Shape" fill="#FFFFFF"></path>
                    </g>
                </g>
            </g>
        </g>
    </g>
</svg>