<?xml version="1.0" encoding="UTF-8" standalone="no"?>
<svg width="19px" height="19px" viewBox="0 0 19 19" version="1.1" xmlns="http://www.w3.org/2000/svg" xmlns:xlink="http://www.w3.org/1999/xlink" xmlns:sketch="http://www.bohemiancoding.com/sketch/ns">
    <!-- Generator: Sketch 3.3.1 (12005) - http://www.bohemiancoding.com/sketch -->
    <title>linkedin</title>
    <desc>Created with Sketch.</desc>
    <defs></defs>
    <g id="Welcome" stroke="none" stroke-width="1" fill="none" fill-rule="evenodd" sketch:type="MSPage">
        <g id="Mobile---Top" sketch:type="MSArtboardGroup" transform="translate(-477.000000, -91.000000)">
            <g id="Group-+-Imported-Layers" sketch:type="MSLayerGroup" transform="translate(346.000000, 90.000000)">
                <g id="Group" sketch:type="MSShapeGroup">
                    <g id="linkedin" transform="translate(130.000000, 0.750000)">
                        <rect id="Rectangle-path" x="0" y="0" width="20" height="20"></rect>
                        <g id="Group" transform="translate(1.000000, 0.000000)" fill="#FFFFFF">
                            <path d="M4.296,2.893 C4.296,3.946 3.519,4.798 2.24,4.798 C1.037,4.798 0.261,3.945 0.261,2.893 C0.261,1.816 1.063,0.989 2.291,0.989 C3.519,0.989 4.271,1.815 4.296,2.893 L4.296,2.893 Z M0.36,18.56 L0.36,6.302 L4.171,6.302 L4.171,18.56 L0.36,18.56 L0.36,18.56 Z" id="Shape"></path>
                            <path d="M6.451,10.213 C6.451,8.684 6.401,7.405 6.351,6.302 L9.659,6.302 L9.835,8.007 L9.91,8.007 C10.411,7.204 11.64,6.027 13.695,6.027 C16.202,6.027 18.082,7.707 18.082,11.316 L18.082,18.56 L14.272,18.56 L14.272,11.767 C14.272,10.188 13.72,9.11 12.342,9.11 C11.289,9.11 10.663,9.837 10.387,10.54 C10.286,10.79 10.262,11.142 10.262,11.492 L10.262,18.56 L6.452,18.56 L6.452,10.213 L6.451,10.213 Z" id="Shape"></path>
                        </g>
                    </g>
                </g>
            </g>
        </g>
    </g>
</svg>