<?xml version="1.0" encoding="UTF-8" standalone="no"?>
<svg width="19px" height="16px" viewBox="0 0 19 16" version="1.1" xmlns="http://www.w3.org/2000/svg" xmlns:xlink="http://www.w3.org/1999/xlink" xmlns:sketch="http://www.bohemiancoding.com/sketch/ns">
    <!-- Generator: Sketch 3.3.1 (12005) - http://www.bohemiancoding.com/sketch -->
    <title>twitter</title>
    <desc>Created with Sketch.</desc>
    <defs></defs>
    <g id="Welcome" stroke="none" stroke-width="1" fill="none" fill-rule="evenodd" sketch:type="MSPage">
        <g id="Mobile---Top" sketch:type="MSArtboardGroup" transform="translate(-387.000000, -93.000000)">
            <g id="Group-+-Imported-Layers" sketch:type="MSLayerGroup" transform="translate(346.000000, 90.000000)">
                <g id="Group" sketch:type="MSShapeGroup">
                    <g id="twitter" transform="translate(41.000000, 0.750000)">
                        <rect id="Rectangle-path" x="0" y="0" width="20" height="20"></rect>
                        <path d="M18.694,4.519 C18.023,4.816 17.303,5.017 16.547,5.108 C17.319,4.645 17.912,3.913 18.191,3.04 C17.468,3.469 16.669,3.779 15.817,3.947 C15.135,3.22 14.164,2.767 13.088,2.767 C11.024,2.767 9.351,4.44 9.351,6.504 C9.351,6.797 9.384,7.082 9.448,7.356 C6.342,7.2 3.587,5.712 1.744,3.451 C1.423,4.003 1.238,4.645 1.238,5.33 C1.238,6.627 1.898,7.77 2.901,8.441 C2.289,8.421 1.712,8.253 1.208,7.973 L1.208,8.02 C1.208,9.832 2.497,11.341 4.206,11.685 C3.893,11.771 3.562,11.816 3.222,11.816 C2.981,11.816 2.747,11.793 2.519,11.75 C2.995,13.234 4.375,14.315 6.011,14.346 C4.732,15.348 3.12,15.946 1.369,15.946 C1.067,15.946 0.77,15.928 0.477,15.893 C2.131,16.954 4.095,17.573 6.206,17.573 C13.081,17.573 16.84,11.878 16.84,6.938 C16.84,6.777 16.837,6.616 16.829,6.455 C17.56,5.927 18.193,5.269 18.694,4.519 L18.694,4.519 Z" id="Shape" fill="#FFFFFF"></path>
                    </g>
                </g>
            </g>
        </g>
    </g>
</svg>