<?xml version="1.0" encoding="utf-8"?>
<!-- Generated by IcoMoon.io -->
<!DOCTYPE svg PUBLIC "-//W3C//DTD SVG 1.1//EN" "http://www.w3.org/Graphics/SVG/1.1/DTD/svg11.dtd">
<svg version="1.1" xmlns="http://www.w3.org/2000/svg" xmlns:xlink="http://www.w3.org/1999/xlink" width="28" height="28" viewBox="0 0 28 28">
<path fill="#444444" d="M23.391 12.922v3.094q-1.578 0.359-3.094 0.359-1.016 2.125-2.586 4.234t-2.836 3.367-2 1.664q-1.25 0.703-2.531-0.047-0.438-0.266-0.945-0.68t-1.328-1.305-1.602-2.008-1.68-2.875-1.648-3.813-1.43-4.914-1.102-6.094h4.422q0.406 3.406 1.094 6.227t1.633 4.953 1.898 3.68 2.188 3.047q2.641-2.641 4.484-6.344-2.219-1.125-3.484-3.437t-1.266-5.203q0-3 1.625-4.914t4.438-1.914q2.781 0 4.266 1.648t1.484 4.648q0 2.484-0.906 4.469-0.109 0.016-0.305 0.047t-0.719 0.031-0.984-0.094-0.969-0.398-0.789-0.805q0.484-1.609 0.484-2.875 0-1.359-0.453-2.063t-1.234-0.703q-0.828 0-1.328 0.773t-0.5 2.195q0 2.906 1.641 4.586t4.172 1.68q0.969 0 1.891-0.219z"></path>
</svg>
