<?xml version="1.0" encoding="UTF-8" standalone="no"?>
<svg width="23px" height="23px" viewBox="0 0 23 23" version="1.1" xmlns="http://www.w3.org/2000/svg" xmlns:xlink="http://www.w3.org/1999/xlink" xmlns:sketch="http://www.bohemiancoding.com/sketch/ns">
    <!-- Generator: Sketch 3.3.1 (12005) - http://www.bohemiancoding.com/sketch -->
    <title>Fill 25 + Fill 24</title>
    <desc>Created with Sketch.</desc>
    <defs></defs>
    <g id="Welcome" stroke="none" stroke-width="1" fill="none" fill-rule="evenodd" sketch:type="MSPage">
        <g id="Mobile---Top" sketch:type="MSArtboardGroup" transform="translate(-522.000000, -88.000000)" fill="#FFFFFF">
            <g id="Fill-25-+-Fill-24" sketch:type="MSLayerGroup" transform="translate(522.000000, 88.000000)">
                <path d="M22.9840335,5.83067929 C22.9819286,5.24471715 22.9391116,4.64932962 22.8278594,4.075098 C22.4645313,2.19985523 21.3512388,0.941412027 19.5434286,0.324356347 C18.6349286,0.0142917595 17.6771429,0.00804231626 16.7268013,0.0071714922 C13.4241451,0.00430289532 10.1214888,-0.00112694878 6.81888393,0.00983518931 C6.02476786,0.0124476615 5.22433705,0.0221804009 4.43807589,0.119302895 C2.41002009,0.369895323 1.03638616,1.48685523 0.338017857,3.39985078 C0.0542142857,4.17713808 0.0146316964,5.00442094 0.0127834821,5.82391759 C0.00436383929,9.58019154 0.00256696429,13.3365167 0.0157611607,17.0927394 C0.0178147321,17.6787528 0.0612477679,18.2734744 0.168957589,18.8486281 C0.522736607,20.7384187 1.64126563,21.997784 3.45610938,22.6260067 C4.22296429,22.8914543 5.03253348,22.9312561 5.83686607,22.9358664 C7.72769196,22.9466748 9.61862054,22.9393497 11.5094978,22.9393497 L11.5094978,22.9437038 C13.0838683,22.9437038 14.6584442,22.9613252 16.2323527,22.9368909 C17.1195469,22.9231114 18.0188571,22.9184499 18.8894688,22.7721514 C20.7688973,22.4562984 22.0204978,21.3305791 22.6622902,19.5493853 C22.9458371,18.7625189 22.985779,17.9276548 22.9875246,17.0995011 C22.9953795,13.3432272 22.9974844,9.586902 22.9840335,5.83067929 L22.9840335,5.83067929 Z M18.638625,14.8633274 C18.5446741,15.3095991 18.3622143,15.7202695 18.0694263,16.0803296 C17.7049688,16.5285479 17.1918326,16.583922 16.6772589,16.6017996 C14.9775692,16.6607595 13.2773147,16.7025078 11.8542924,16.7429755 C10.0369844,16.7068107 8.4982433,16.6806347 6.95981027,16.6425746 C6.56773214,16.6328419 6.17488393,16.5991871 5.78542411,16.5517016 C5.27511161,16.489412 4.89525223,16.1838552 4.70652902,15.7388129 C4.4861808,15.218931 4.29951116,14.6657016 4.2188058,14.1095523 C3.95420313,12.2857394 3.99378571,10.4558307 4.25720759,8.63227394 C4.33211161,8.11397996 4.4953192,7.62355234 4.76633929,7.16857238 C5.00137054,6.77403786 5.33589732,6.5293363 5.78824777,6.47857238 C6.29696875,6.4215078 6.80928348,6.36551893 7.32021205,6.36357238 C10.1247746,6.35286637 12.9293884,6.35455679 15.7339509,6.36357238 C16.1854286,6.36500668 16.6363929,6.43124053 17.0882299,6.45618708 C17.6158951,6.48533408 18.0272768,6.73966592 18.2368951,7.19669488 C18.4650982,7.69408909 18.6724063,8.22549666 18.7513661,8.7621804 C19.0508795,10.7978597 19.0649464,12.837637 18.638625,14.8633274 L18.638625,14.8633274 Z" id="Fill-25" sketch:type="MSShapeGroup"></path>
                <path d="M10.0390893,14.2029354 C11.4408571,13.3020423 12.8086897,12.4229198 14.2240112,11.5133185 C12.80525,10.5962895 11.4345938,9.7103029 10.0390893,8.80833408 L10.0390893,14.2029354" id="Fill-24" sketch:type="MSShapeGroup"></path>
            </g>
        </g>
    </g>
</svg>